<?xml version="1.0" encoding="UTF-8" standalone="no"?>
<!-- Generator: Adobe Illustrator 21.0.2, SVG Export Plug-In . SVG Version: 6.00 Build 0)  -->

<svg
   xmlns:dc="http://purl.org/dc/elements/1.1/"
   xmlns:cc="http://creativecommons.org/ns#"
   xmlns:rdf="http://www.w3.org/1999/02/22-rdf-syntax-ns#"
   xmlns:svg="http://www.w3.org/2000/svg"
   xmlns="http://www.w3.org/2000/svg"
   xmlns:sodipodi="http://sodipodi.sourceforge.net/DTD/sodipodi-0.dtd"
   xmlns:inkscape="http://www.inkscape.org/namespaces/inkscape"
   version="1.1"
   id="Layer_1"
   x="0px"
   y="0px"
   viewBox="0 0 735 852"
   style="enable-background:new 0 0 735 852;"
   xml:space="preserve"
   inkscape:version="0.91 r13725"
   sodipodi:docname="logo_flexitarian.svg"><metadata
     id="metadata121"><rdf:RDF><cc:Work
         rdf:about=""><dc:format>image/svg+xml</dc:format><dc:type
           rdf:resource="http://purl.org/dc/dcmitype/StillImage" /><dc:title></dc:title></cc:Work></rdf:RDF></metadata><defs
     id="defs119" /><sodipodi:namedview
     pagecolor="#ffffff"
     bordercolor="#666666"
     borderopacity="1"
     objecttolerance="10"
     gridtolerance="10"
     guidetolerance="10"
     inkscape:pageopacity="0"
     inkscape:pageshadow="2"
     inkscape:window-width="1920"
     inkscape:window-height="998"
     id="namedview117"
     showgrid="false"
     inkscape:zoom="0.78346103"
     inkscape:cx="432.15984"
     inkscape:cy="404.92065"
     inkscape:window-x="0"
     inkscape:window-y="29"
     inkscape:window-maximized="1"
     inkscape:current-layer="Layer_1" /><style
     type="text/css"
     id="style3">
	.st0{fill:#ED7D15;}
	.st1{fill:#AC5D12;}
	.st2{fill:#E6B35A;}
	.st3{display:none;}
	.st4{display:inline;}
	.st5{fill:none;stroke:#000000;stroke-width:4;stroke-miterlimit:10;}
	.st6{fill:#FFFFFF;stroke:#000000;stroke-width:4;stroke-miterlimit:10;}
	.st7{fill:#FFFFFF;}
	.st8{font-family:'ArialMT';}
	.st9{font-size:90px;}
</style><path
     class="st0"
     d="M709,233.1L366.9,22.5l-341,210.6v394.4l341.5,197.2L709,627.5V233.1z"
     id="path5" /><path
     class="st1"
     d="M734.9,637.4V213.1l-29.3-16.9L427.8,35.8L367.5,1l-60.3,34.8L29.4,196.2L0.1,213.1v424.2l29.3,16.9  l281.3,162.4l56.9,32.8l56.9-32.8l281.3-162.4L734.9,637.4z M29.4,621.5V231l50-28.9L367.5,35.8l0,0l287.2,165.8l50.9,29.4v390.5  L367.5,816.7L29.4,621.5z"
     id="path7" /><path
     class="st2"
     d="M367,633.9c0.3-0.3,0.6-0.6,0.9-0.9h-0.3C367.5,633.3,367.3,633.6,367,633.9z"
     id="path9" /><g
     class="st3"
     id="g11"><g
       class="st4"
       id="g13"><path
         class="st5"
         d="M182.2,206.2c125.9-50.3,251.7-50.3,377.6,0c50.3,125.9,50.3,251.7,0,377.6c-125.9,50.3-251.7,50.3-377.6,0    C131.9,457.9,131.9,332.1,182.2,206.2z"
         id="path15" /><path
         class="st5"
         d="M175.3,565.8c130.4,45.5,260.9,45.5,391.3,0"
         id="path17" /><path
         class="st5"
         d="M169.2,547.8c134.5,40.7,269.1,40.7,403.6,0"
         id="path19" /><path
         class="st5"
         d="M163.7,529.9c138.2,35.9,276.4,35.9,414.6,0"
         id="path21" /><path
         class="st5"
         d="M158.9,511.9c141.4,31.1,282.8,31.1,424.2,0"
         id="path23" /><path
         class="st5"
         d="M154.8,493.9c144.1,26.4,288.2,26.4,432.4,0"
         id="path25" /><path
         class="st5"
         d="M151.4,475.9c146.4,21.6,292.8,21.6,439.2,0"
         id="path27" /><path
         class="st5"
         d="M148.7,457.9c148.2,16.8,296.5,16.8,444.7,0"
         id="path29" /><path
         class="st5"
         d="M146.6,440c149.6,12,299.2,12,448.8,0"
         id="path31" /><path
         class="st5"
         d="M145.2,422c150.5,7.2,301,7.2,451.5,0"
         id="path33" /><path
         class="st5"
         d="M144.5,404c151,2.4,301.9,2.4,452.9,0"
         id="path35" /><path
         class="st5"
         d="M144.5,386c151-2.4,301.9-2.4,452.9,0"
         id="path37" /><path
         class="st5"
         d="M145.2,368c150.5-7.2,301-7.2,451.5,0"
         id="path39" /><path
         class="st5"
         d="M146.6,350c149.6-12,299.2-12,448.8,0"
         id="path41" /><path
         class="st5"
         d="M148.7,332.1c148.2-16.8,296.5-16.8,444.7,0"
         id="path43" /><path
         class="st5"
         d="M151.4,314.1c146.4-21.6,292.8-21.6,439.2,0"
         id="path45" /><path
         class="st5"
         d="M154.8,296.1c144.1-26.4,288.2-26.4,432.4,0"
         id="path47" /><path
         class="st5"
         d="M158.9,278.1c141.4-31.1,282.8-31.1,424.2,0"
         id="path49" /><path
         class="st5"
         d="M163.7,260.1c138.2-35.9,276.4-35.9,414.6,0"
         id="path51" /><path
         class="st5"
         d="M169.2,242.2c134.5-40.7,269.1-40.7,403.6,0"
         id="path53" /><path
         class="st5"
         d="M175.3,224.2c130.4-45.5,260.9-45.5,391.3,0"
         id="path55" /><path
         class="st5"
         d="M525.5,193.7c41.2,134.2,41.2,268.4,0,402.6"
         id="path57" /><path
         class="st5"
         d="M491.1,183.7c32,140.8,32,281.7,0,422.5"
         id="path59" /><path
         class="st5"
         d="M456.8,176.3c22.9,145.8,22.9,291.7,0,437.5"
         id="path61" /><path
         class="st5"
         d="M422.5,171.3c13.7,149.2,13.7,298.3,0,447.5"
         id="path63" /><path
         class="st5"
         d="M388.2,168.8c4.6,150.8,4.6,301.6,0,452.5"
         id="path65" /><path
         class="st5"
         d="M353.8,168.8c-4.6,150.8-4.6,301.6,0,452.5"
         id="path67" /><path
         class="st5"
         d="M319.5,171.3c-13.7,149.2-13.7,298.3,0,447.5"
         id="path69" /><path
         class="st5"
         d="M285.2,176.3c-22.9,145.8-22.9,291.7,0,437.5"
         id="path71" /><path
         class="st5"
         d="M250.8,183.7c-32,140.8-32,281.7,0,422.5"
         id="path73" /><path
         class="st5"
         d="M216.5,193.7c-41.2,134.2-41.2,268.4,0,402.6"
         id="path75" /></g></g><g
     id="g77"><g
       id="g79"><path
         class="st6"
         d="M579,505.1c-141-31.2-282-31.2-423,0c48.2-90.6,48.2-181.2,0-271.9c141,31.2,282,31.2,423,0    C530.8,323.9,530.8,414.5,579,505.1z"
         id="path81" /><path
         class="st6"
         d="M564.7,263.4c-131.5,24.3-263,24.3-394.5,0"
         id="path83" /><path
         class="st6"
         d="M554,293.6C429.7,311,305.3,311,181,293.6"
         id="path85" /><path
         class="st6"
         d="M546.9,323.9c-119.6,10.4-239.2,10.4-358.8,0"
         id="path87" /><path
         class="st6"
         d="M543.3,354.1c-117.2,3.5-234.4,3.5-351.6,0"
         id="path89" /><path
         class="st6"
         d="M543.3,384.3c-117.2-3.5-234.4-3.5-351.6,0"
         id="path91" /><path
         class="st6"
         d="M546.9,414.5c-119.6-10.4-239.2-10.4-358.8,0"
         id="path93" /><path
         class="st6"
         d="M554,444.7c-124.4-17.3-248.7-17.3-373.1,0"
         id="path95" /><path
         class="st6"
         d="M564.7,474.9c-131.5-24.3-263-24.3-394.5,0"
         id="path97" /><path
         class="st6"
         d="M203,495.8c37.5-84.5,37.5-168.9,0-253.4"
         id="path99"
         style="fill:none" /><path
         class="st6"
         d="M250,488.9c26.8-79.8,26.8-159.7,0-239.5"
         id="path101"
         style="fill:none" /><path
         class="st6"
         d="M297,484.3c16.1-76.7,16.1-153.5,0-230.2"
         id="path103"
         style="fill:none" /><path
         class="st6"
         d="M344,482c5.4-75.2,5.4-150.4,0-225.6"
         id="path105"
         style="fill:none" /><path
         class="st6"
         d="M391,482c-5.4-75.2-5.4-150.4,0-225.6"
         id="path107"
         style="fill:none" /><path
         class="st6"
         d="M438,484.3c-16.1-76.7-16.1-153.5,0-230.2"
         id="path109"
         style="fill:none" /><path
         class="st6"
         d="M485,488.9c-26.8-79.8-26.8-159.7,0-239.5"
         id="path111"
         style="fill:none" /><path
         class="st6"
         d="M532,495.8c-37.5-84.5-37.5-168.9,0-253.4"
         id="path113"
         style="fill:none" /></g></g><text
     class="st7 st8 st9"
     id="text115"
     x="129.99756"
     y="616.87158"
     style="font-size:90px;font-family:ArialMT;fill:#ffffff">Flexitarian</text>
</svg>